<svg width="20" height="20" viewBox="0 0 20 20" fill="none" xmlns="http://www.w3.org/2000/svg">
<g id="copy-01" clip-path="url(#clip0_7212_5202)">
<path id="Icon" d="M4.16406 12.5001C3.38749 12.5001 2.99921 12.5001 2.69292 12.3732C2.28454 12.2041 1.96009 11.8796 1.79093 11.4712C1.66406 11.1649 1.66406 10.7767 1.66406 10.0001V4.33341C1.66406 3.39999 1.66406 2.93328 1.84572 2.57676C2.00551 2.26316 2.26047 2.00819 2.57408 1.8484C2.9306 1.66675 3.39731 1.66675 4.33073 1.66675H9.9974C10.774 1.66675 11.1622 1.66675 11.4685 1.79362C11.8769 1.96277 12.2014 2.28723 12.3705 2.69561C12.4974 3.00189 12.4974 3.39018 12.4974 4.16675M10.1641 18.3334H15.6641C16.5975 18.3334 17.0642 18.3334 17.4207 18.1518C17.7343 17.992 17.9893 17.737 18.1491 17.4234C18.3307 17.0669 18.3307 16.6002 18.3307 15.6667V10.1667C18.3307 9.23333 18.3307 8.76662 18.1491 8.4101C17.9893 8.09649 17.7343 7.84153 17.4207 7.68174C17.0642 7.50008 16.5975 7.50008 15.6641 7.50008H10.1641C9.23064 7.50008 8.76393 7.50008 8.40741 7.68174C8.09381 7.84153 7.83884 8.09649 7.67905 8.4101C7.4974 8.76662 7.4974 9.23333 7.4974 10.1667V15.6667C7.4974 16.6002 7.4974 17.0669 7.67905 17.4234C7.83884 17.737 8.09381 17.992 8.40741 18.1518C8.76393 18.3334 9.23064 18.3334 10.1641 18.3334Z" stroke="#344054" stroke-width="1.66667" stroke-linecap="round" stroke-linejoin="round"/>
</g>
<defs>
<clipPath id="clip0_7212_5202">
<rect width="20" height="20" fill="white"/>
</clipPath>
</defs>
</svg>
